  0
SECTION
  2
HEADER
  9
$ACADVER
  1
AC1009
  9
$INSBASE
 10
0.000000
 20
0.000000
  9
$LIMMIN
 10
-1187.145144
 20
-606.777468
  9
$LIMMAX
 10
1057.932296
 20
578.247916
  9
$EXTMIN
 10
-1187.145144
 20
-606.777468
  9
$EXTMAX
 10
1057.932296
 20
578.247916
  9
$ATTMODE
 70
0
  9
$LUNITS
 70
2
  9
$LUPREC
 70
4
  9
$THICKNESS
 40
0.731520
  0
ENDSEC
  0
SECTION
  2
TABLES
  0
TABLE
  2
LTYPE
 70
1
  0
LTYPE
  3
Solid Line
  2
CONTINUOUS
 70
0
 72
65
 73
0
 40
0.000000
  0
ENDTAB
  0
TABLE
  2
LAYER
 70
5
  0
LAYER
  2
BG_SILKSCREEN_BOTTOM
 70
0
 62
85
  6
CONTINUOUS
  0
LAYER
  2
BG_OUTLINE
 70
0
 62
254
  6
CONTINUOUS
  0
LAYER
  2
PG_SILKSCREEN_BOTTOM
 70
0
 62
85
  6
CONTINUOUS
  0
LAYER
  2
PIN_BOTTOM
 70
0
 62
1
  6
CONTINUOUS
  0
LAYER
  2
RD_SILKSCREEN_BOTTOM
 70
0
 62
6
  6
CONTINUOUS
  0
ENDTAB
  0
TABLE
  2
STYLE
 70
1
  0
STYLE
  2
STANDARD
 70
0
 40
0.000000
 41
1.000000
 50
0.000000
 71
0
 42
0.200000
  3
txt
  0
ENDTAB
  0
ENDSEC
  0
SECTION
  2
BLOCKS
  0
BLOCK
  8
0
  2
FIGURE_CIRCLE
 70
0
 10
0.000000
 20
0.000000
  0
CIRCLE
  8
0
 10
0.000000
 20
0.000000
 40
0.500000
  0
ENDBLK
  0
BLOCK
  8
0
  2
FIGURE_SQUARE
 70
0
 10
0.000000
 20
0.000000
  0
POLYLINE
  8
0
 66
1
 70
1
 40
0.000000
 41
0.000000
 39
0.000000
  0
VERTEX
  8
0
 10
-0.500000
 20
-0.500000
 40
0.000000
 41
0.000000
 42
0.000000
  0
VERTEX
  8
0
 10
-0.500000
 20
0.500000
 40
0.000000
 41
0.000000
 42
0.000000
  0
VERTEX
  8
0
 10
0.500000
 20
0.500000
 40
0.000000
 41
0.000000
 42
0.000000
  0
VERTEX
  8
0
 10
0.500000
 20
-0.500000
 40
0.000000
 41
0.000000
 42
0.000000
  0
SEQEND
  0
ENDBLK
  0
BLOCK
  8
0
  2
FIGURE_HEX
 70
0
 10
0.000000
 20
0.000000
  0
POLYLINE
  8
0
 66
1
 70
1
 40
0.000000
 41
0.000000
 39
0.000000
  0
VERTEX
  8
0
 10
-0.500000
 20
0.000000
 40
0.000000
 41
0.000000
 42
0.000000
  0
VERTEX
  8
0
 10
-0.250000
 20
0.500000
 40
0.000000
 41
0.000000
 42
0.000000
  0
VERTEX
  8
0
 10
0.250000
 20
0.500000
 40
0.000000
 41
0.000000
 42
0.000000
  0
VERTEX
  8
0
 10
0.500000
 20
0.000000
 40
0.000000
 41
0.000000
 42
0.000000
  0
VERTEX
  8
0
 10
0.250000
 20
-0.500000
 40
0.000000
 41
0.000000
 42
0.000000
  0
VERTEX
  8
0
 10
-0.250000
 20
-0.500000
 40
0.000000
 41
0.000000
 42
0.000000
  0
SEQEND
  0
ENDBLK
  0
BLOCK
  8
0
  2
FIGURE_OCT
 70
0
 10
0.000000
 20
0.000000
  0
POLYLINE
  8
0
 66
1
 70
1
 40
0.000000
 41
0.000000
 39
0.000000
  0
VERTEX
  8
0
 10
-0.500000
 20
-0.207100
 40
0.000000
 41
0.000000
 42
0.000000
  0
VERTEX
  8
0
 10
-0.500000
 20
0.207100
 40
0.000000
 41
0.000000
 42
0.000000
  0
VERTEX
  8
0
 10
-0.207100
 20
0.500000
 40
0.000000
 41
0.000000
 42
0.000000
  0
VERTEX
  8
0
 10
0.207100
 20
0.500000
 40
0.000000
 41
0.000000
 42
0.000000
  0
VERTEX
  8
0
 10
0.500000
 20
0.207100
 40
0.000000
 41
0.000000
 42
0.000000
  0
VERTEX
  8
0
 10
0.500000
 20
-0.207100
 40
0.000000
 41
0.000000
 42
0.000000
  0
VERTEX
  8
0
 10
0.207100
 20
-0.500000
 40
0.000000
 41
0.000000
 42
0.000000
  0
VERTEX
  8
0
 10
-0.207100
 20
-0.500000
 40
0.000000
 41
0.000000
 42
0.000000
  0
SEQEND
  0
ENDBLK
  0
BLOCK
  8
0
  2
FIGURE_OBLONG
 70
0
 10
0.000000
 20
0.000000
  0
POLYLINE
  8
0
 66
1
 70
1
 40
0.000000
 41
0.000000
 39
0.000000
  0
VERTEX
  8
0
 10
-0.500000
 20
-0.125000
 40
0.000000
 41
0.000000
 42
0.000000
  0
VERTEX
  8
0
 10
-0.500000
 20
0.125000
 40
0.000000
 41
0.000000
 42
0.000000
  0
VERTEX
  8
0
 10
-0.416000
 20
0.375000
 40
0.000000
 41
0.000000
 42
0.000000
  0
VERTEX
  8
0
 10
-0.250000
 20
0.500000
 40
0.000000
 41
0.000000
 42
0.000000
  0
VERTEX
  8
0
 10
0.250000
 20
0.500000
 40
0.000000
 41
0.000000
 42
0.000000
  0
VERTEX
  8
0
 10
0.416000
 20
0.375000
 40
0.000000
 41
0.000000
 42
0.000000
  0
VERTEX
  8
0
 10
0.500000
 20
0.125000
 40
0.000000
 41
0.000000
 42
0.000000
  0
VERTEX
  8
0
 10
0.500000
 20
-0.125000
 40
0.000000
 41
0.000000
 42
0.000000
  0
VERTEX
  8
0
 10
0.416000
 20
-0.375000
 40
0.000000
 41
0.000000
 42
0.000000
  0
VERTEX
  8
0
 10
0.250000
 20
-0.500000
 40
0.000000
 41
0.000000
 42
0.000000
  0
VERTEX
  8
0
 10
-0.250000
 20
-0.500000
 40
0.000000
 41
0.000000
 42
0.000000
  0
VERTEX
  8
0
 10
-0.416000
 20
-0.375000
 40
0.000000
 41
0.000000
 42
0.000000
  0
SEQEND
  0
ENDBLK
  0
BLOCK
  8
0
  2
FIGURE_TRI
 70
0
 10
0.000000
 20
0.000000
  0
POLYLINE
  8
0
 66
1
 70
1
 40
0.000000
 41
0.000000
 39
0.000000
  0
VERTEX
  8
0
 10
-0.500000
 20
-0.500000
 40
0.000000
 41
0.000000
 42
0.000000
  0
VERTEX
  8
0
 10
0.000000
 20
0.500000
 40
0.000000
 41
0.000000
 42
0.000000
  0
VERTEX
  8
0
 10
0.500000
 20
-0.500000
 40
0.000000
 41
0.000000
 42
0.000000
  0
SEQEND
  0
ENDBLK
  0
BLOCK
  8
0
  2
FIGURE_CROSS
 70
0
 10
0.000000
 20
0.000000
  0
POLYLINE
  8
0
 66
1
 70
0
 40
0.000000
 41
0.000000
 39
0.000000
  0
VERTEX
  8
0
 10
-0.500000
 20
0.000000
 40
0.000000
 41
0.000000
 42
0.000000
  0
VERTEX
  8
0
 10
0.500000
 20
0.000000
 40
0.000000
 41
0.000000
 42
0.000000
  0
SEQEND
  0
POLYLINE
  8
0
 66
1
 70
0
 40
0.000000
 41
0.000000
 39
0.000000
  0
VERTEX
  8
0
 10
0.000000
 20
0.500000
 40
0.000000
 41
0.000000
 42
0.000000
  0
VERTEX
  8
0
 10
0.000000
 20
-0.500000
 40
0.000000
 41
0.000000
 42
0.000000
  0
SEQEND
  0
ENDBLK
  0
BLOCK
  8
0
  2
FIGURE_DIAMOND
 70
0
 10
0.000000
 20
0.000000
  0
POLYLINE
  8
0
 66
1
 70
1
 40
0.000000
 41
0.000000
 39
0.000000
  0
VERTEX
  8
0
 10
-0.500000
 20
0.000000
 40
0.000000
 41
0.000000
 42
0.000000
  0
VERTEX
  8
0
 10
0.000000
 20
0.500000
 40
0.000000
 41
0.000000
 42
0.000000
  0
VERTEX
  8
0
 10
0.500000
 20
0.000000
 40
0.000000
 41
0.000000
 42
0.000000
  0
VERTEX
  8
0
 10
0.000000
 20
-0.500000
 40
0.000000
 41
0.000000
 42
0.000000
  0
SEQEND
  0
ENDBLK
  0
ENDSEC
  0
SECTION
  2
ENTITIES
  0
POLYLINE
  8
PIN_BOTTOM
 66
1
 70
1
 40
0.000000
 41
0.000000
 39
0.000000
  0
VERTEX
  8
PIN_BOTTOM
 10
-95.478981
 20
-70.456806
 40
0.000000
 41
0.000000
 42
0.000000
  0
VERTEX
  8
PIN_BOTTOM
 10
-95.478981
 20
-69.656706
 40
0.000000
 41
0.000000
 42
-1.000000
  0
VERTEX
  8
PIN_BOTTOM
 10
-94.579059
 20
-69.656706
 40
0.000000
 41
0.000000
 42
0.000000
  0
VERTEX
  8
PIN_BOTTOM
 10
-94.579059
 20
-70.456806
 40
0.000000
 41
0.000000
 42
-1.000000
  0
SEQEND
  0
POLYLINE
  8
PIN_BOTTOM
 66
1
 70
1
 40
0.000000
 41
0.000000
 39
0.000000
  0
VERTEX
  8
PIN_BOTTOM
 10
-95.478981
 20
-64.506729
 40
0.000000
 41
0.000000
 42
0.000000
  0
VERTEX
  8
PIN_BOTTOM
 10
-95.478981
 20
-63.406655
 40
0.000000
 41
0.000000
 42
-1.000000
  0
VERTEX
  8
PIN_BOTTOM
 10
-94.579059
 20
-63.406655
 40
0.000000
 41
0.000000
 42
0.000000
  0
VERTEX
  8
PIN_BOTTOM
 10
-94.579059
 20
-64.506729
 40
0.000000
 41
0.000000
 42
-1.000000
  0
SEQEND
  0
POLYLINE
  8
PIN_BOTTOM
 66
1
 70
1
 40
0.000000
 41
0.000000
 39
0.000000
  0
VERTEX
  8
PIN_BOTTOM
 10
-92.618941
 20
-70.456806
 40
0.000000
 41
0.000000
 42
0.000000
  0
VERTEX
  8
PIN_BOTTOM
 10
-92.618941
 20
-69.656706
 40
0.000000
 41
0.000000
 42
-1.000000
  0
VERTEX
  8
PIN_BOTTOM
 10
-91.719019
 20
-69.656706
 40
0.000000
 41
0.000000
 42
0.000000
  0
VERTEX
  8
PIN_BOTTOM
 10
-91.719019
 20
-70.456806
 40
0.000000
 41
0.000000
 42
-1.000000
  0
SEQEND
  0
POLYLINE
  8
PIN_BOTTOM
 66
1
 70
1
 40
0.000000
 41
0.000000
 39
0.000000
  0
VERTEX
  8
PIN_BOTTOM
 10
-92.618941
 20
-64.506729
 40
0.000000
 41
0.000000
 42
0.000000
  0
VERTEX
  8
PIN_BOTTOM
 10
-92.618941
 20
-63.406655
 40
0.000000
 41
0.000000
 42
-1.000000
  0
VERTEX
  8
PIN_BOTTOM
 10
-91.719019
 20
-63.406655
 40
0.000000
 41
0.000000
 42
0.000000
  0
VERTEX
  8
PIN_BOTTOM
 10
-91.719019
 20
-64.506729
 40
0.000000
 41
0.000000
 42
-1.000000
  0
SEQEND
  0
CIRCLE
  8
PIN_BOTTOM
 10
-93.224096
 20
-67.556634
 40
0.299974
  0
CIRCLE
  8
PIN_BOTTOM
 10
-93.224096
 20
-66.656712
 40
0.299974
  0
CIRCLE
  8
PIN_BOTTOM
 10
-93.224096
 20
-65.756790
 40
0.299974
  0
CIRCLE
  8
PIN_BOTTOM
 10
-93.224096
 20
-64.856614
 40
0.299974
  0
CIRCLE
  8
PIN_BOTTOM
 10
-93.224096
 20
-63.956692
 40
0.299974
  0
CIRCLE
  8
PIN_BOTTOM
 10
-93.973904
 20
-63.956692
 40
0.299974
  0
CIRCLE
  8
PIN_BOTTOM
 10
-93.973904
 20
-64.856614
 40
0.299974
  0
CIRCLE
  8
PIN_BOTTOM
 10
-93.973904
 20
-66.206624
 40
0.299974
  0
CIRCLE
  8
PIN_BOTTOM
 10
-93.973904
 20
-67.106800
 40
0.299974
  0
CIRCLE
  8
PIN_BOTTOM
 10
-93.973904
 20
-68.006722
 40
0.299974
  0
CIRCLE
  8
PIN_BOTTOM
 10
-93.973904
 20
-68.906644
 40
0.299974
  0
CIRCLE
  8
PIN_BOTTOM
 10
-93.973904
 20
-69.806566
 40
0.299974
  0
CIRCLE
  8
PIN_BOTTOM
 10
-93.224096
 20
-69.806566
 40
0.299974
  0
CIRCLE
  8
PIN_BOTTOM
 10
-93.224096
 20
-68.906644
 40
0.299974
  0
CIRCLE
  8
PIN_BOTTOM
 10
-83.992720
 20
-65.445894
 40
0.750062
  0
POLYLINE
  8
PIN_BOTTOM
 66
1
 70
1
 40
0.000000
 41
0.000000
 39
0.000000
  0
VERTEX
  8
PIN_BOTTOM
 10
-80.742790
 20
-72.245728
 40
0.000000
 41
0.000000
 42
0.000000
  0
VERTEX
  8
PIN_BOTTOM
 10
-80.742790
 20
-73.045828
 40
0.000000
 41
0.000000
 42
-1.000000
  0
VERTEX
  8
PIN_BOTTOM
 10
-81.942686
 20
-73.045828
 40
0.000000
 41
0.000000
 42
0.000000
  0
VERTEX
  8
PIN_BOTTOM
 10
-81.942686
 20
-72.245728
 40
0.000000
 41
0.000000
 42
-1.000000
  0
SEQEND
  0
POLYLINE
  8
PIN_BOTTOM
 66
1
 70
1
 40
0.000000
 41
0.000000
 39
0.000000
  0
VERTEX
  8
PIN_BOTTOM
 10
-85.442806
 20
-72.245728
 40
0.000000
 41
0.000000
 42
0.000000
  0
VERTEX
  8
PIN_BOTTOM
 10
-85.442806
 20
-73.045828
 40
0.000000
 41
0.000000
 42
-1.000000
  0
VERTEX
  8
PIN_BOTTOM
 10
-86.642702
 20
-73.045828
 40
0.000000
 41
0.000000
 42
0.000000
  0
VERTEX
  8
PIN_BOTTOM
 10
-86.642702
 20
-72.245728
 40
0.000000
 41
0.000000
 42
-1.000000
  0
SEQEND
  0
CIRCLE
  8
PIN_BOTTOM
 10
-83.992720
 20
-72.445880
 40
0.750062
  0
CIRCLE
  8
PIN_BOTTOM
 10
-13.744158
 20
-9.175079
 40
0.750062
  0
CIRCLE
  8
PIN_BOTTOM
 10
-16.284158
 20
-9.175079
 40
0.750062
  0
CIRCLE
  8
PIN_BOTTOM
 10
-18.824158
 20
-9.175079
 40
0.750062
  0
CIRCLE
  8
PIN_BOTTOM
 10
-13.744158
 20
-6.635079
 40
0.750062
  0
CIRCLE
  8
PIN_BOTTOM
 10
-16.284158
 20
-6.635079
 40
0.750062
  0
CIRCLE
  8
PIN_BOTTOM
 10
-18.824158
 20
-6.635079
 40
0.750062
  0
CIRCLE
  8
PIN_BOTTOM
 10
-4.197096
 20
-41.017952
 40
0.499999
  0
CIRCLE
  8
PIN_BOTTOM
 10
-4.197096
 20
-33.017968
 40
0.499999
  0
CIRCLE
  8
PIN_BOTTOM
 10
-39.954843
 20
-8.959921
 40
0.762000
  0
CIRCLE
  8
PIN_BOTTOM
 10
-37.414843
 20
-8.959921
 40
0.762000
  0
CIRCLE
  8
PIN_BOTTOM
 10
-39.954843
 20
-11.499921
 40
0.762000
  0
CIRCLE
  8
PIN_BOTTOM
 10
-37.414843
 20
-11.499921
 40
0.762000
  0
CIRCLE
  8
PIN_BOTTOM
 10
-89.027000
 20
-7.747000
 40
0.508000
  0
POLYLINE
  8
PG_SILKSCREEN_BOTTOM
 66
1
 70
0
 40
0.000000
 41
0.000000
 39
0.000000
  0
VERTEX
  8
PG_SILKSCREEN_BOTTOM
 10
-90.293800
 20
-7.744600
 40
0.203200
 41
0.203200
 42
-1.000000
  0
VERTEX
  8
PG_SILKSCREEN_BOTTOM
 10
-87.753800
 20
-7.744600
 40
0.203200
 41
0.203200
 42
0.000000
  0
SEQEND
  0
POLYLINE
  8
PG_SILKSCREEN_BOTTOM
 66
1
 70
0
 40
0.000000
 41
0.000000
 39
0.000000
  0
VERTEX
  8
PG_SILKSCREEN_BOTTOM
 10
-87.753800
 20
-7.744600
 40
0.203200
 41
0.203200
 42
-1.000000
  0
VERTEX
  8
PG_SILKSCREEN_BOTTOM
 10
-90.293800
 20
-7.744600
 40
0.203200
 41
0.203200
 42
0.000000
  0
SEQEND
  0
CIRCLE
  8
PIN_BOTTOM
 10
-4.445000
 20
-48.006000
 40
0.508000
  0
POLYLINE
  8
PG_SILKSCREEN_BOTTOM
 66
1
 70
0
 40
0.000000
 41
0.000000
 39
0.000000
  0
VERTEX
  8
PG_SILKSCREEN_BOTTOM
 10
-5.711800
 20
-48.003600
 40
0.203200
 41
0.203200
 42
-1.000000
  0
VERTEX
  8
PG_SILKSCREEN_BOTTOM
 10
-3.171800
 20
-48.003600
 40
0.203200
 41
0.203200
 42
0.000000
  0
SEQEND
  0
POLYLINE
  8
PG_SILKSCREEN_BOTTOM
 66
1
 70
0
 40
0.000000
 41
0.000000
 39
0.000000
  0
VERTEX
  8
PG_SILKSCREEN_BOTTOM
 10
-3.171800
 20
-48.003600
 40
0.203200
 41
0.203200
 42
-1.000000
  0
VERTEX
  8
PG_SILKSCREEN_BOTTOM
 10
-5.711800
 20
-48.003600
 40
0.203200
 41
0.203200
 42
0.000000
  0
SEQEND
  0
CIRCLE
  8
PIN_BOTTOM
 10
-89.916000
 20
-69.469000
 40
0.508000
  0
POLYLINE
  8
PG_SILKSCREEN_BOTTOM
 66
1
 70
0
 40
0.000000
 41
0.000000
 39
0.000000
  0
VERTEX
  8
PG_SILKSCREEN_BOTTOM
 10
-91.182800
 20
-69.466600
 40
0.203200
 41
0.203200
 42
-1.000000
  0
VERTEX
  8
PG_SILKSCREEN_BOTTOM
 10
-88.642800
 20
-69.466600
 40
0.203200
 41
0.203200
 42
0.000000
  0
SEQEND
  0
POLYLINE
  8
PG_SILKSCREEN_BOTTOM
 66
1
 70
0
 40
0.000000
 41
0.000000
 39
0.000000
  0
VERTEX
  8
PG_SILKSCREEN_BOTTOM
 10
-88.642800
 20
-69.466600
 40
0.203200
 41
0.203200
 42
-1.000000
  0
VERTEX
  8
PG_SILKSCREEN_BOTTOM
 10
-91.182800
 20
-69.466600
 40
0.203200
 41
0.203200
 42
0.000000
  0
SEQEND
  0
CIRCLE
  8
PIN_BOTTOM
 10
-7.747000
 20
-5.461000
 40
0.508000
  0
POLYLINE
  8
PG_SILKSCREEN_BOTTOM
 66
1
 70
0
 40
0.000000
 41
0.000000
 39
0.000000
  0
VERTEX
  8
PG_SILKSCREEN_BOTTOM
 10
-9.013800
 20
-5.458600
 40
0.203200
 41
0.203200
 42
-1.000000
  0
VERTEX
  8
PG_SILKSCREEN_BOTTOM
 10
-6.473800
 20
-5.458600
 40
0.203200
 41
0.203200
 42
0.000000
  0
SEQEND
  0
POLYLINE
  8
PG_SILKSCREEN_BOTTOM
 66
1
 70
0
 40
0.000000
 41
0.000000
 39
0.000000
  0
VERTEX
  8
PG_SILKSCREEN_BOTTOM
 10
-6.473800
 20
-5.458600
 40
0.203200
 41
0.203200
 42
-1.000000
  0
VERTEX
  8
PG_SILKSCREEN_BOTTOM
 10
-9.013800
 20
-5.458600
 40
0.203200
 41
0.203200
 42
0.000000
  0
SEQEND
  0
POLYLINE
  8
PIN_BOTTOM
 66
1
 70
1
 40
0.000000
 41
0.000000
 39
0.000000
  0
VERTEX
  8
PIN_BOTTOM
 10
-20.305100
 20
-1.699898
 40
0.000000
 41
0.000000
 42
0.000000
  0
VERTEX
  8
PIN_BOTTOM
 10
-20.305100
 20
-1.300102
 40
0.000000
 41
0.000000
 42
-1.000000
  0
VERTEX
  8
PIN_BOTTOM
 10
-19.505000
 20
-1.300102
 40
0.000000
 41
0.000000
 42
0.000000
  0
VERTEX
  8
PIN_BOTTOM
 10
-19.505000
 20
-1.699898
 40
0.000000
 41
0.000000
 42
-1.000000
  0
SEQEND
  0
POLYLINE
  8
PIN_BOTTOM
 66
1
 70
1
 40
0.000000
 41
0.000000
 39
0.000000
  0
VERTEX
  8
PIN_BOTTOM
 10
-16.004880
 20
-1.699898
 40
0.000000
 41
0.000000
 42
0.000000
  0
VERTEX
  8
PIN_BOTTOM
 10
-16.004880
 20
-1.300102
 40
0.000000
 41
0.000000
 42
-1.000000
  0
VERTEX
  8
PIN_BOTTOM
 10
-15.204780
 20
-1.300102
 40
0.000000
 41
0.000000
 42
0.000000
  0
VERTEX
  8
PIN_BOTTOM
 10
-15.204780
 20
-1.699898
 40
0.000000
 41
0.000000
 42
-1.000000
  0
SEQEND
  0
POLYLINE
  8
PIN_BOTTOM
 66
1
 70
1
 40
0.000000
 41
0.000000
 39
0.000000
  0
VERTEX
  8
PIN_BOTTOM
 10
-13.404898
 20
-1.699895
 40
0.000000
 41
0.000000
 42
0.000000
  0
VERTEX
  8
PIN_BOTTOM
 10
-13.404898
 20
-1.300099
 40
0.000000
 41
0.000000
 42
-1.000000
  0
VERTEX
  8
PIN_BOTTOM
 10
-12.604798
 20
-1.300099
 40
0.000000
 41
0.000000
 42
0.000000
  0
VERTEX
  8
PIN_BOTTOM
 10
-12.604798
 20
-1.699895
 40
0.000000
 41
0.000000
 42
-1.000000
  0
SEQEND
  0
POLYLINE
  8
PIN_BOTTOM
 66
1
 70
1
 40
0.000000
 41
0.000000
 39
0.000000
  0
VERTEX
  8
PIN_BOTTOM
 10
-9.104678
 20
-1.699895
 40
0.000000
 41
0.000000
 42
0.000000
  0
VERTEX
  8
PIN_BOTTOM
 10
-9.104678
 20
-1.300099
 40
0.000000
 41
0.000000
 42
-1.000000
  0
VERTEX
  8
PIN_BOTTOM
 10
-8.304578
 20
-1.300099
 40
0.000000
 41
0.000000
 42
0.000000
  0
VERTEX
  8
PIN_BOTTOM
 10
-8.304578
 20
-1.699895
 40
0.000000
 41
0.000000
 42
-1.000000
  0
SEQEND
  0
POLYLINE
  8
PIN_BOTTOM
 66
1
 70
1
 40
0.000000
 41
0.000000
 39
0.000000
  0
VERTEX
  8
PIN_BOTTOM
 10
-16.904452
 20
-61.278252
 40
0.000000
 41
0.000000
 42
0.000000
  0
VERTEX
  8
PIN_BOTTOM
 10
-16.904452
 20
-59.778151
 40
0.000000
 41
0.000000
 42
0.000000
  0
VERTEX
  8
PIN_BOTTOM
 10
-15.404351
 20
-59.778151
 40
0.000000
 41
0.000000
 42
0.000000
  0
VERTEX
  8
PIN_BOTTOM
 10
-15.404351
 20
-61.278252
 40
0.000000
 41
0.000000
 42
0.000000
  0
SEQEND
  0
CIRCLE
  8
PIN_BOTTOM
 10
-5.994400
 20
-66.878200
 40
1.599946
  0
CIRCLE
  8
PIN_BOTTOM
 10
-17.424400
 20
-66.878200
 40
1.599946
  0
CIRCLE
  8
PIN_BOTTOM
 10
-3.834409
 20
-63.828193
 40
1.249997
  0
CIRCLE
  8
PIN_BOTTOM
 10
-19.584391
 20
-63.828193
 40
1.249997
  0
CIRCLE
  8
PIN_BOTTOM
 10
-14.884400
 20
-57.988200
 40
0.750062
  0
CIRCLE
  8
PIN_BOTTOM
 10
-13.614400
 20
-60.528200
 40
0.750062
  0
CIRCLE
  8
PIN_BOTTOM
 10
-12.344400
 20
-57.988200
 40
0.750062
  0
CIRCLE
  8
PIN_BOTTOM
 10
-11.074400
 20
-60.528200
 40
0.750062
  0
CIRCLE
  8
PIN_BOTTOM
 10
-9.804400
 20
-57.988200
 40
0.750062
  0
CIRCLE
  8
PIN_BOTTOM
 10
-8.534400
 20
-60.528200
 40
0.750062
  0
CIRCLE
  8
PIN_BOTTOM
 10
-7.264400
 20
-57.988200
 40
0.750062
  0
CIRCLE
  8
PIN_BOTTOM
 10
-18.339410
 20
-70.938212
 40
0.787400
  0
CIRCLE
  8
PIN_BOTTOM
 10
-15.799410
 20
-70.938212
 40
0.787400
  0
CIRCLE
  8
PIN_BOTTOM
 10
-7.619390
 20
-70.938212
 40
0.787400
  0
CIRCLE
  8
PIN_BOTTOM
 10
-5.079390
 20
-70.938212
 40
0.787400
  0
CIRCLE
  8
PIN_BOTTOM
 10
-17.424400
 20
-57.988200
 40
0.750062
  0
CIRCLE
  8
PIN_BOTTOM
 10
-5.994400
 20
-60.528200
 40
0.750062
  0
POLYLINE
  8
PIN_BOTTOM
 66
1
 70
1
 40
0.000000
 41
0.000000
 39
0.000000
  0
VERTEX
  8
PIN_BOTTOM
 10
-35.479472
 20
-61.278252
 40
0.000000
 41
0.000000
 42
0.000000
  0
VERTEX
  8
PIN_BOTTOM
 10
-35.479472
 20
-59.778151
 40
0.000000
 41
0.000000
 42
0.000000
  0
VERTEX
  8
PIN_BOTTOM
 10
-33.979371
 20
-59.778151
 40
0.000000
 41
0.000000
 42
0.000000
  0
VERTEX
  8
PIN_BOTTOM
 10
-33.979371
 20
-61.278252
 40
0.000000
 41
0.000000
 42
0.000000
  0
SEQEND
  0
CIRCLE
  8
PIN_BOTTOM
 10
-24.569420
 20
-66.878200
 40
1.599946
  0
CIRCLE
  8
PIN_BOTTOM
 10
-35.999420
 20
-66.878200
 40
1.599946
  0
CIRCLE
  8
PIN_BOTTOM
 10
-22.409429
 20
-63.828193
 40
1.249997
  0
CIRCLE
  8
PIN_BOTTOM
 10
-38.159411
 20
-63.828193
 40
1.249997
  0
CIRCLE
  8
PIN_BOTTOM
 10
-33.459420
 20
-57.988200
 40
0.750062
  0
CIRCLE
  8
PIN_BOTTOM
 10
-32.189420
 20
-60.528200
 40
0.750062
  0
CIRCLE
  8
PIN_BOTTOM
 10
-30.919420
 20
-57.988200
 40
0.750062
  0
CIRCLE
  8
PIN_BOTTOM
 10
-29.649420
 20
-60.528200
 40
0.750062
  0
CIRCLE
  8
PIN_BOTTOM
 10
-28.379420
 20
-57.988200
 40
0.750062
  0
CIRCLE
  8
PIN_BOTTOM
 10
-27.109420
 20
-60.528200
 40
0.750062
  0
CIRCLE
  8
PIN_BOTTOM
 10
-25.839420
 20
-57.988200
 40
0.750062
  0
CIRCLE
  8
PIN_BOTTOM
 10
-36.914430
 20
-70.938212
 40
0.787400
  0
CIRCLE
  8
PIN_BOTTOM
 10
-34.374430
 20
-70.938212
 40
0.787400
  0
CIRCLE
  8
PIN_BOTTOM
 10
-26.194410
 20
-70.938212
 40
0.787400
  0
CIRCLE
  8
PIN_BOTTOM
 10
-23.654410
 20
-70.938212
 40
0.787400
  0
CIRCLE
  8
PIN_BOTTOM
 10
-35.999420
 20
-57.988200
 40
0.750062
  0
CIRCLE
  8
PIN_BOTTOM
 10
-24.569420
 20
-60.528200
 40
0.750062
  0
POLYLINE
  8
PIN_BOTTOM
 66
1
 70
1
 40
0.000000
 41
0.000000
 39
0.000000
  0
VERTEX
  8
PIN_BOTTOM
 10
-92.345223
 20
-5.480141
 40
0.000000
 41
0.000000
 42
0.000000
  0
VERTEX
  8
PIN_BOTTOM
 10
-92.345223
 20
-3.980017
 40
0.000000
 41
0.000000
 42
0.000000
  0
VERTEX
  8
PIN_BOTTOM
 10
-90.845099
 20
-3.980017
 40
0.000000
 41
0.000000
 42
0.000000
  0
VERTEX
  8
PIN_BOTTOM
 10
-90.845099
 20
-5.480141
 40
0.000000
 41
0.000000
 42
0.000000
  0
SEQEND
  0
CIRCLE
  8
PIN_BOTTOM
 10
-91.595161
 20
-2.190079
 40
0.750062
  0
CIRCLE
  8
PIN_BOTTOM
 10
-89.055161
 20
-4.730079
 40
0.750062
  0
CIRCLE
  8
PIN_BOTTOM
 10
-89.055161
 20
-2.190079
 40
0.750062
  0
CIRCLE
  8
PIN_BOTTOM
 10
-86.515161
 20
-4.730079
 40
0.750062
  0
CIRCLE
  8
PIN_BOTTOM
 10
-86.515161
 20
-2.190079
 40
0.750062
  0
CIRCLE
  8
PIN_BOTTOM
 10
-83.975161
 20
-4.730079
 40
0.750062
  0
CIRCLE
  8
PIN_BOTTOM
 10
-83.975161
 20
-2.190079
 40
0.750062
  0
CIRCLE
  8
PIN_BOTTOM
 10
-81.435161
 20
-4.730079
 40
0.750062
  0
CIRCLE
  8
PIN_BOTTOM
 10
-81.435161
 20
-2.190079
 40
0.750062
  0
CIRCLE
  8
PIN_BOTTOM
 10
-78.895161
 20
-4.730079
 40
0.750062
  0
CIRCLE
  8
PIN_BOTTOM
 10
-78.895161
 20
-2.190079
 40
0.750062
  0
CIRCLE
  8
PIN_BOTTOM
 10
-76.355161
 20
-4.730079
 40
0.750062
  0
CIRCLE
  8
PIN_BOTTOM
 10
-76.355161
 20
-2.190079
 40
0.750062
  0
CIRCLE
  8
PIN_BOTTOM
 10
-73.815161
 20
-4.730079
 40
0.750062
  0
CIRCLE
  8
PIN_BOTTOM
 10
-73.815161
 20
-2.190079
 40
0.750062
  0
CIRCLE
  8
PIN_BOTTOM
 10
-71.275161
 20
-4.730079
 40
0.750062
  0
CIRCLE
  8
PIN_BOTTOM
 10
-71.275161
 20
-2.190079
 40
0.750062
  0
CIRCLE
  8
PIN_BOTTOM
 10
-68.735161
 20
-4.730079
 40
0.750062
  0
CIRCLE
  8
PIN_BOTTOM
 10
-68.735161
 20
-2.190079
 40
0.750062
  0
CIRCLE
  8
PIN_BOTTOM
 10
-66.195161
 20
-4.730079
 40
0.750062
  0
CIRCLE
  8
PIN_BOTTOM
 10
-66.195161
 20
-2.190079
 40
0.750062
  0
CIRCLE
  8
PIN_BOTTOM
 10
-63.655161
 20
-4.730079
 40
0.750062
  0
CIRCLE
  8
PIN_BOTTOM
 10
-63.655161
 20
-2.190079
 40
0.750062
  0
CIRCLE
  8
PIN_BOTTOM
 10
-61.115161
 20
-4.730079
 40
0.750062
  0
CIRCLE
  8
PIN_BOTTOM
 10
-61.115161
 20
-2.190079
 40
0.750062
  0
CIRCLE
  8
PIN_BOTTOM
 10
-71.246238
 20
-62.096142
 40
0.750062
  0
CIRCLE
  8
PIN_BOTTOM
 10
-69.246242
 20
-62.096142
 40
0.750062
  0
CIRCLE
  8
PIN_BOTTOM
 10
-66.746120
 20
-62.096142
 40
0.750062
  0
CIRCLE
  8
PIN_BOTTOM
 10
-69.246242
 20
-64.716152
 40
0.750062
  0
CIRCLE
  8
PIN_BOTTOM
 10
-71.246238
 20
-64.716152
 40
0.750062
  0
CIRCLE
  8
PIN_BOTTOM
 10
-66.746120
 20
-64.716152
 40
0.750062
  0
CIRCLE
  8
PIN_BOTTOM
 10
-76.816204
 20
-61.746130
 40
1.524000
  0
CIRCLE
  8
PIN_BOTTOM
 10
-63.676276
 20
-61.746130
 40
1.524000
  0
CIRCLE
  8
PIN_BOTTOM
 10
-76.816204
 20
-67.426332
 40
1.524000
  0
CIRCLE
  8
PIN_BOTTOM
 10
-63.676276
 20
-67.426332
 40
1.524000
  0
POLYLINE
  8
PIN_BOTTOM
 66
1
 70
1
 40
0.000000
 41
0.000000
 39
0.000000
  0
VERTEX
  8
PIN_BOTTOM
 10
-74.496422
 20
-62.846204
 40
0.000000
 41
0.000000
 42
0.000000
  0
VERTEX
  8
PIN_BOTTOM
 10
-74.496422
 20
-61.346080
 40
0.000000
 41
0.000000
 42
0.000000
  0
VERTEX
  8
PIN_BOTTOM
 10
-72.996298
 20
-61.346080
 40
0.000000
 41
0.000000
 42
0.000000
  0
VERTEX
  8
PIN_BOTTOM
 10
-72.996298
 20
-62.846204
 40
0.000000
 41
0.000000
 42
0.000000
  0
SEQEND
  0
POLYLINE
  8
PIN_BOTTOM
 66
1
 70
1
 40
0.000000
 41
0.000000
 39
0.000000
  0
VERTEX
  8
PIN_BOTTOM
 10
-74.496422
 20
-65.466214
 40
0.000000
 41
0.000000
 42
0.000000
  0
VERTEX
  8
PIN_BOTTOM
 10
-74.496422
 20
-63.966090
 40
0.000000
 41
0.000000
 42
0.000000
  0
VERTEX
  8
PIN_BOTTOM
 10
-72.996298
 20
-63.966090
 40
0.000000
 41
0.000000
 42
0.000000
  0
VERTEX
  8
PIN_BOTTOM
 10
-72.996298
 20
-65.466214
 40
0.000000
 41
0.000000
 42
0.000000
  0
SEQEND
  0
POLYLINE
  8
PG_SILKSCREEN_BOTTOM
 66
1
 70
1
 40
0.000000
 41
0.000000
 39
0.000000
  0
VERTEX
  8
PG_SILKSCREEN_BOTTOM
 10
-75.146154
 20
-60.696094
 40
0.000000
 41
0.000000
 42
0.000000
  0
VERTEX
  8
PG_SILKSCREEN_BOTTOM
 10
-75.146154
 20
-66.096134
 40
0.000000
 41
0.000000
 42
0.000000
  0
VERTEX
  8
PG_SILKSCREEN_BOTTOM
 10
-65.346326
 20
-66.096134
 40
0.000000
 41
0.000000
 42
0.000000
  0
VERTEX
  8
PG_SILKSCREEN_BOTTOM
 10
-65.346326
 20
-60.696094
 40
0.000000
 41
0.000000
 42
0.000000
  0
SEQEND
  0
POLYLINE
  8
PG_SILKSCREEN_BOTTOM
 66
1
 70
1
 40
0.000000
 41
0.000000
 39
0.000000
  0
VERTEX
  8
PG_SILKSCREEN_BOTTOM
 10
-70.360540
 20
-64.716221
 40
0.000000
 41
0.000000
 42
1.000000
  0
VERTEX
  8
PG_SILKSCREEN_BOTTOM
 10
-72.131940
 20
-64.716219
 40
0.000000
 41
0.000000
 42
1.000000
  0
SEQEND
  0
POLYLINE
  8
PG_SILKSCREEN_BOTTOM
 66
1
 70
1
 40
0.000000
 41
0.000000
 39
0.000000
  0
VERTEX
  8
PG_SILKSCREEN_BOTTOM
 10
-68.360544
 20
-64.716221
 40
0.000000
 41
0.000000
 42
1.000000
  0
VERTEX
  8
PG_SILKSCREEN_BOTTOM
 10
-70.131936
 20
-64.716219
 40
0.000000
 41
0.000000
 42
1.000000
  0
SEQEND
  0
POLYLINE
  8
PG_SILKSCREEN_BOTTOM
 66
1
 70
1
 40
0.000000
 41
0.000000
 39
0.000000
  0
VERTEX
  8
PG_SILKSCREEN_BOTTOM
 10
-65.866264
 20
-64.716221
 40
0.000000
 41
0.000000
 42
1.000000
  0
VERTEX
  8
PG_SILKSCREEN_BOTTOM
 10
-67.626216
 20
-64.716219
 40
0.000000
 41
0.000000
 42
1.000000
  0
SEQEND
  0
POLYLINE
  8
PG_SILKSCREEN_BOTTOM
 66
1
 70
1
 40
0.000000
 41
0.000000
 39
0.000000
  0
VERTEX
  8
PG_SILKSCREEN_BOTTOM
 10
-65.840864
 20
-62.096221
 40
0.000000
 41
0.000000
 42
1.000000
  0
VERTEX
  8
PG_SILKSCREEN_BOTTOM
 10
-67.651616
 20
-62.096219
 40
0.000000
 41
0.000000
 42
1.000000
  0
SEQEND
  0
POLYLINE
  8
PG_SILKSCREEN_BOTTOM
 66
1
 70
1
 40
0.000000
 41
0.000000
 39
0.000000
  0
VERTEX
  8
PG_SILKSCREEN_BOTTOM
 10
-68.340732
 20
-62.096221
 40
0.000000
 41
0.000000
 42
1.000000
  0
VERTEX
  8
PG_SILKSCREEN_BOTTOM
 10
-70.151748
 20
-62.096219
 40
0.000000
 41
0.000000
 42
1.000000
  0
SEQEND
  0
POLYLINE
  8
PG_SILKSCREEN_BOTTOM
 66
1
 70
1
 40
0.000000
 41
0.000000
 39
0.000000
  0
VERTEX
  8
PG_SILKSCREEN_BOTTOM
 10
-70.346316
 20
-62.096221
 40
0.000000
 41
0.000000
 42
1.000000
  0
VERTEX
  8
PG_SILKSCREEN_BOTTOM
 10
-72.146164
 20
-62.096219
 40
0.000000
 41
0.000000
 42
1.000000
  0
SEQEND
  0
POLYLINE
  8
PG_SILKSCREEN_BOTTOM
 66
1
 70
1
 40
0.000000
 41
0.000000
 39
0.000000
  0
VERTEX
  8
PG_SILKSCREEN_BOTTOM
 10
-72.846184
 20
-65.596262
 40
0.000000
 41
0.000000
 42
0.000000
  0
VERTEX
  8
PG_SILKSCREEN_BOTTOM
 10
-74.646282
 20
-65.596262
 40
0.000000
 41
0.000000
 42
0.000000
  0
VERTEX
  8
PG_SILKSCREEN_BOTTOM
 10
-74.646282
 20
-63.796164
 40
0.000000
 41
0.000000
 42
0.000000
  0
VERTEX
  8
PG_SILKSCREEN_BOTTOM
 10
-72.846184
 20
-63.796164
 40
0.000000
 41
0.000000
 42
0.000000
  0
SEQEND
  0
POLYLINE
  8
PG_SILKSCREEN_BOTTOM
 66
1
 70
1
 40
0.000000
 41
0.000000
 39
0.000000
  0
VERTEX
  8
PG_SILKSCREEN_BOTTOM
 10
-72.846184
 20
-62.996318
 40
0.000000
 41
0.000000
 42
0.000000
  0
VERTEX
  8
PG_SILKSCREEN_BOTTOM
 10
-74.646282
 20
-62.996318
 40
0.000000
 41
0.000000
 42
0.000000
  0
VERTEX
  8
PG_SILKSCREEN_BOTTOM
 10
-74.646282
 20
-61.196220
 40
0.000000
 41
0.000000
 42
0.000000
  0
VERTEX
  8
PG_SILKSCREEN_BOTTOM
 10
-72.846184
 20
-61.196220
 40
0.000000
 41
0.000000
 42
0.000000
  0
SEQEND
  0
CIRCLE
  8
PIN_BOTTOM
 10
-50.215038
 20
-62.096142
 40
0.750062
  0
CIRCLE
  8
PIN_BOTTOM
 10
-48.215042
 20
-62.096142
 40
0.750062
  0
CIRCLE
  8
PIN_BOTTOM
 10
-45.714920
 20
-62.096142
 40
0.750062
  0
CIRCLE
  8
PIN_BOTTOM
 10
-48.215042
 20
-64.716152
 40
0.750062
  0
CIRCLE
  8
PIN_BOTTOM
 10
-50.215038
 20
-64.716152
 40
0.750062
  0
CIRCLE
  8
PIN_BOTTOM
 10
-45.714920
 20
-64.716152
 40
0.750062
  0
CIRCLE
  8
PIN_BOTTOM
 10
-55.785004
 20
-61.746130
 40
1.524000
  0
CIRCLE
  8
PIN_BOTTOM
 10
-42.645076
 20
-61.746130
 40
1.524000
  0
CIRCLE
  8
PIN_BOTTOM
 10
-55.785004
 20
-67.426332
 40
1.524000
  0
CIRCLE
  8
PIN_BOTTOM
 10
-42.645076
 20
-67.426332
 40
1.524000
  0
POLYLINE
  8
PIN_BOTTOM
 66
1
 70
1
 40
0.000000
 41
0.000000
 39
0.000000
  0
VERTEX
  8
PIN_BOTTOM
 10
-53.465222
 20
-62.846204
 40
0.000000
 41
0.000000
 42
0.000000
  0
VERTEX
  8
PIN_BOTTOM
 10
-53.465222
 20
-61.346080
 40
0.000000
 41
0.000000
 42
0.000000
  0
VERTEX
  8
PIN_BOTTOM
 10
-51.965098
 20
-61.346080
 40
0.000000
 41
0.000000
 42
0.000000
  0
VERTEX
  8
PIN_BOTTOM
 10
-51.965098
 20
-62.846204
 40
0.000000
 41
0.000000
 42
0.000000
  0
SEQEND
  0
POLYLINE
  8
PIN_BOTTOM
 66
1
 70
1
 40
0.000000
 41
0.000000
 39
0.000000
  0
VERTEX
  8
PIN_BOTTOM
 10
-53.465222
 20
-65.466214
 40
0.000000
 41
0.000000
 42
0.000000
  0
VERTEX
  8
PIN_BOTTOM
 10
-53.465222
 20
-63.966090
 40
0.000000
 41
0.000000
 42
0.000000
  0
VERTEX
  8
PIN_BOTTOM
 10
-51.965098
 20
-63.966090
 40
0.000000
 41
0.000000
 42
0.000000
  0
VERTEX
  8
PIN_BOTTOM
 10
-51.965098
 20
-65.466214
 40
0.000000
 41
0.000000
 42
0.000000
  0
SEQEND
  0
POLYLINE
  8
PG_SILKSCREEN_BOTTOM
 66
1
 70
1
 40
0.000000
 41
0.000000
 39
0.000000
  0
VERTEX
  8
PG_SILKSCREEN_BOTTOM
 10
-54.114954
 20
-60.696094
 40
0.000000
 41
0.000000
 42
0.000000
  0
VERTEX
  8
PG_SILKSCREEN_BOTTOM
 10
-54.114954
 20
-66.096134
 40
0.000000
 41
0.000000
 42
0.000000
  0
VERTEX
  8
PG_SILKSCREEN_BOTTOM
 10
-44.315126
 20
-66.096134
 40
0.000000
 41
0.000000
 42
0.000000
  0
VERTEX
  8
PG_SILKSCREEN_BOTTOM
 10
-44.315126
 20
-60.696094
 40
0.000000
 41
0.000000
 42
0.000000
  0
SEQEND
  0
POLYLINE
  8
PG_SILKSCREEN_BOTTOM
 66
1
 70
1
 40
0.000000
 41
0.000000
 39
0.000000
  0
VERTEX
  8
PG_SILKSCREEN_BOTTOM
 10
-49.329340
 20
-64.716221
 40
0.000000
 41
0.000000
 42
1.000000
  0
VERTEX
  8
PG_SILKSCREEN_BOTTOM
 10
-51.100740
 20
-64.716219
 40
0.000000
 41
0.000000
 42
1.000000
  0
SEQEND
  0
POLYLINE
  8
PG_SILKSCREEN_BOTTOM
 66
1
 70
1
 40
0.000000
 41
0.000000
 39
0.000000
  0
VERTEX
  8
PG_SILKSCREEN_BOTTOM
 10
-47.329344
 20
-64.716221
 40
0.000000
 41
0.000000
 42
1.000000
  0
VERTEX
  8
PG_SILKSCREEN_BOTTOM
 10
-49.100736
 20
-64.716219
 40
0.000000
 41
0.000000
 42
1.000000
  0
SEQEND
  0
POLYLINE
  8
PG_SILKSCREEN_BOTTOM
 66
1
 70
1
 40
0.000000
 41
0.000000
 39
0.000000
  0
VERTEX
  8
PG_SILKSCREEN_BOTTOM
 10
-44.835064
 20
-64.716221
 40
0.000000
 41
0.000000
 42
1.000000
  0
VERTEX
  8
PG_SILKSCREEN_BOTTOM
 10
-46.595016
 20
-64.716219
 40
0.000000
 41
0.000000
 42
1.000000
  0
SEQEND
  0
POLYLINE
  8
PG_SILKSCREEN_BOTTOM
 66
1
 70
1
 40
0.000000
 41
0.000000
 39
0.000000
  0
VERTEX
  8
PG_SILKSCREEN_BOTTOM
 10
-44.809664
 20
-62.096221
 40
0.000000
 41
0.000000
 42
1.000000
  0
VERTEX
  8
PG_SILKSCREEN_BOTTOM
 10
-46.620416
 20
-62.096219
 40
0.000000
 41
0.000000
 42
1.000000
  0
SEQEND
  0
POLYLINE
  8
PG_SILKSCREEN_BOTTOM
 66
1
 70
1
 40
0.000000
 41
0.000000
 39
0.000000
  0
VERTEX
  8
PG_SILKSCREEN_BOTTOM
 10
-47.309532
 20
-62.096221
 40
0.000000
 41
0.000000
 42
1.000000
  0
VERTEX
  8
PG_SILKSCREEN_BOTTOM
 10
-49.120548
 20
-62.096219
 40
0.000000
 41
0.000000
 42
1.000000
  0
SEQEND
  0
POLYLINE
  8
PG_SILKSCREEN_BOTTOM
 66
1
 70
1
 40
0.000000
 41
0.000000
 39
0.000000
  0
VERTEX
  8
PG_SILKSCREEN_BOTTOM
 10
-49.315116
 20
-62.096221
 40
0.000000
 41
0.000000
 42
1.000000
  0
VERTEX
  8
PG_SILKSCREEN_BOTTOM
 10
-51.114964
 20
-62.096219
 40
0.000000
 41
0.000000
 42
1.000000
  0
SEQEND
  0
POLYLINE
  8
PG_SILKSCREEN_BOTTOM
 66
1
 70
1
 40
0.000000
 41
0.000000
 39
0.000000
  0
VERTEX
  8
PG_SILKSCREEN_BOTTOM
 10
-51.814984
 20
-65.596262
 40
0.000000
 41
0.000000
 42
0.000000
  0
VERTEX
  8
PG_SILKSCREEN_BOTTOM
 10
-53.615082
 20
-65.596262
 40
0.000000
 41
0.000000
 42
0.000000
  0
VERTEX
  8
PG_SILKSCREEN_BOTTOM
 10
-53.615082
 20
-63.796164
 40
0.000000
 41
0.000000
 42
0.000000
  0
VERTEX
  8
PG_SILKSCREEN_BOTTOM
 10
-51.814984
 20
-63.796164
 40
0.000000
 41
0.000000
 42
0.000000
  0
SEQEND
  0
POLYLINE
  8
PG_SILKSCREEN_BOTTOM
 66
1
 70
1
 40
0.000000
 41
0.000000
 39
0.000000
  0
VERTEX
  8
PG_SILKSCREEN_BOTTOM
 10
-51.814984
 20
-62.996318
 40
0.000000
 41
0.000000
 42
0.000000
  0
VERTEX
  8
PG_SILKSCREEN_BOTTOM
 10
-53.615082
 20
-62.996318
 40
0.000000
 41
0.000000
 42
0.000000
  0
VERTEX
  8
PG_SILKSCREEN_BOTTOM
 10
-53.615082
 20
-61.196220
 40
0.000000
 41
0.000000
 42
0.000000
  0
VERTEX
  8
PG_SILKSCREEN_BOTTOM
 10
-51.814984
 20
-61.196220
 40
0.000000
 41
0.000000
 42
0.000000
  0
SEQEND
  0
CIRCLE
  8
PIN_BOTTOM
 10
-52.690014
 20
-1.551940
 40
0.400050
  0
CIRCLE
  8
PIN_BOTTOM
 10
-49.690020
 20
-1.551940
 40
0.400050
  0
CIRCLE
  8
PIN_BOTTOM
 10
-38.625003
 20
-3.600000
 40
2.849999
  0
CIRCLE
  8
PIN_BOTTOM
 10
-96.625001
 20
-52.549999
 40
2.849999
  0
CIRCLE
  8
PIN_BOTTOM
 10
-3.525002
 20
-3.550001
 40
2.849999
  0
CIRCLE
  8
PIN_BOTTOM
 10
-3.487420
 20
-52.631340
 40
2.849999
  0
CIRCLE
  8
PIN_BOTTOM
 10
-96.674998
 20
-3.550001
 40
2.849999
  0
POLYLINE
  8
BG_OUTLINE
 66
1
 70
1
 40
0.000000
 41
0.000000
 39
0.000000
  0
VERTEX
  8
BG_OUTLINE
 10
-100.224999
 20
-71.187500
 40
0.000000
 41
0.000000
 42
0.000000
  0
VERTEX
  8
BG_OUTLINE
 10
-100.224999
 20
-2.949999
 40
0.000000
 41
0.000000
 42
-0.414214
  0
VERTEX
  8
BG_OUTLINE
 10
-97.225000
 20
0.050000
 40
0.000000
 41
0.000000
 42
0.000000
  0
VERTEX
  8
BG_OUTLINE
 10
-34.928442
 20
0.050000
 40
0.000000
 41
0.000000
 42
0.000000
  0
VERTEX
  8
BG_OUTLINE
 10
-3.031249
 20
0.050000
 40
0.000000
 41
0.000000
 42
-0.414214
  0
VERTEX
  8
BG_OUTLINE
 10
-0.031250
 20
-2.949999
 40
0.000000
 41
0.000000
 42
0.000000
  0
VERTEX
  8
BG_OUTLINE
 10
-0.031250
 20
-71.187500
 40
0.000000
 41
0.000000
 42
-0.414214
  0
VERTEX
  8
BG_OUTLINE
 10
-3.031249
 20
-74.187500
 40
0.000000
 41
0.000000
 42
0.000000
  0
VERTEX
  8
BG_OUTLINE
 10
-97.225000
 20
-74.187500
 40
0.000000
 41
0.000000
 42
-0.414214
  0
SEQEND
  0
ENDSEC
  0
EOF
